<?xml version="1.0" encoding="utf-8"?>
<!-- Generator: Adobe Illustrator 24.1.0, SVG Export Plug-In . SVG Version: 6.00 Build 0)  -->
<svg version="1.1" id="Layer_1" xmlns="http://www.w3.org/2000/svg" xmlns:xlink="http://www.w3.org/1999/xlink" x="0px" y="0px"
	 viewBox="0 0 416.4 126" style="enable-background:new 0 0 416.4 126;" xml:space="preserve">
<style type="text/css">
	.st0{stroke:#BEBEBE;stroke-width:3;stroke-miterlimit:10;}
	.st1{fill:#FFFFFF;}
</style>
<g>
	<path class="st0" d="M400.5,122.5H15.9c-6.6,0-12-5.4-12-12v-95c0-6.6,5.4-12,12-12h384.7c6.6,0,12,5.4,12,12v95
		C412.5,117.1,407.2,122.5,400.5,122.5z"/>
	<g>
		<g>
			<g>
				<path class="st1" d="M88.1,21.4c-4.1,0.3-8.9,2.9-11.7,6.3c-2.6,3.1-4.7,7.7-3.8,12.2c4.5,0.1,9.1-2.5,11.8-6
					C86.9,30.7,88.8,26.1,88.1,21.4z"/>
			</g>
		</g>
		<g>
			<g>
				<path class="st1" d="M104.4,47.3c-3.9-5-9.5-7.8-14.7-7.8c-6.9,0-9.8,3.3-14.7,3.3c-5,0-8.7-3.3-14.7-3.3
					c-5.9,0-12.1,3.6-16.1,9.7c-5.6,8.7-4.6,24.9,4.4,38.8c3.2,5,7.5,10.5,13.2,10.6c5,0.1,6.5-3.2,13.3-3.3c6.8,0,8.1,3.3,13.1,3.3
					c5.7,0,10.2-6.2,13.4-11.2c2.3-3.6,3.2-5.3,5-9.3C93.5,73,91.4,54.4,104.4,47.3z"/>
			</g>
		</g>
	</g>
	<g>
		<path class="st1" d="M135.3,22.6c1.8-0.3,3.8-0.5,6.1-0.5c4.1,0,7.1,1,9,2.8c2,1.8,3.1,4.4,3.1,8c0,3.6-1.1,6.6-3.2,8.7
			c-2.1,2.1-5.5,3.2-9.9,3.2c-2.1,0-3.8-0.1-5.2-0.3L135.3,22.6L135.3,22.6z M138.2,42.3c0.7,0.1,1.8,0.2,2.9,0.2
			c6.2,0,9.5-3.4,9.5-9.5c0-5.3-2.9-8.6-9-8.6c-1.5,0-2.6,0.1-3.4,0.3L138.2,42.3L138.2,42.3z"/>
		<path class="st1" d="M172,36.4c0,5.9-4.1,8.5-8,8.5c-4.3,0-7.7-3.2-7.7-8.2c0-5.4,3.5-8.5,7.9-8.5C168.9,28.2,172,31.6,172,36.4z
			 M159.3,36.6c0,3.5,2,6.2,4.9,6.2c2.8,0,4.9-2.6,4.9-6.2c0-2.7-1.4-6.2-4.8-6.2S159.3,33.6,159.3,36.6z"/>
		<path class="st1" d="M176.8,28.6l2.1,8.1c0.5,1.8,0.9,3.4,1.2,5.1h0.1c0.4-1.6,0.9-3.3,1.4-5.1l2.6-8.2h2.4l2.5,8
			c0.6,1.9,1.1,3.6,1.4,5.2h0.1c0.3-1.6,0.7-3.3,1.2-5.2l2.3-8h2.9l-5.2,16h-2.6l-2.4-7.7c-0.6-1.8-1-3.4-1.4-5.3h-0.1
			c-0.4,1.9-0.9,3.6-1.5,5.3l-2.6,7.6h-2.6l-4.8-16C173.8,28.6,176.8,28.6,176.8,28.6z"/>
		<path class="st1" d="M200.1,32.9c0-1.7,0-3-0.1-4.3h2.6l0.2,2.6h0.1c0.8-1.5,2.6-3,5.3-3c2.2,0,5.7,1.3,5.7,6.8v9.6h-2.9v-9.2
			c0-2.6-1-4.7-3.7-4.7c-1.9,0-3.4,1.4-3.9,3c-0.1,0.4-0.2,0.9-0.2,1.4v9.6h-2.9L200.1,32.9L200.1,32.9z"/>
		<path class="st1" d="M218.6,21.1h2.9v23.5h-2.9V21.1z"/>
		<path class="st1" d="M241,36.4c0,5.9-4.1,8.5-8,8.5c-4.3,0-7.7-3.2-7.7-8.2c0-5.4,3.5-8.5,7.9-8.5C237.9,28.2,241,31.6,241,36.4z
			 M228.3,36.6c0,3.5,2,6.2,4.9,6.2c2.8,0,4.9-2.6,4.9-6.2c0-2.7-1.4-6.2-4.8-6.2S228.3,33.6,228.3,36.6z"/>
		<path class="st1" d="M253.7,44.6l-0.2-2h-0.1c-0.9,1.3-2.6,2.4-4.9,2.4c-3.2,0-4.9-2.3-4.9-4.6c0-3.9,3.4-6,9.6-6v-0.3
			c0-1.3-0.4-3.7-3.6-3.7c-1.5,0-3,0.5-4.2,1.2l-0.7-1.9c1.3-0.9,3.2-1.4,5.3-1.4c4.9,0,6.1,3.3,6.1,6.6v6c0,1.4,0.1,2.8,0.3,3.8
			L253.7,44.6L253.7,44.6z M253.3,36.4c-3.2-0.1-6.8,0.5-6.8,3.6c0,1.9,1.3,2.8,2.8,2.8c2.1,0,3.4-1.3,3.9-2.7
			c0.1-0.3,0.2-0.6,0.2-0.9L253.3,36.4L253.3,36.4z"/>
		<path class="st1" d="M274.8,21.1v19.4c0,1.4,0,3,0.1,4.1h-2.6l-0.1-2.8h-0.1c-0.9,1.8-2.9,3.1-5.5,3.1c-3.9,0-6.9-3.3-6.9-8.1
			c0-5.3,3.3-8.6,7.2-8.6c2.5,0,4.1,1.2,4.8,2.5h0.1v-9.6H274.8z M271.8,35.1c0-0.4,0-0.9-0.1-1.2c-0.4-1.8-2-3.4-4.2-3.4
			c-3,0-4.8,2.6-4.8,6.2c0,3.2,1.6,5.9,4.7,5.9c2,0,3.7-1.3,4.3-3.5c0.1-0.4,0.1-0.8,0.1-1.3V35.1z"/>
		<path class="st1" d="M301.4,36.4c0,5.9-4.1,8.5-8,8.5c-4.3,0-7.7-3.2-7.7-8.2c0-5.4,3.5-8.5,7.9-8.5
			C298.2,28.2,301.4,31.6,301.4,36.4z M288.6,36.6c0,3.5,2,6.2,4.9,6.2c2.8,0,4.9-2.6,4.9-6.2c0-2.7-1.4-6.2-4.8-6.2
			C290.1,30.4,288.6,33.6,288.6,36.6z"/>
		<path class="st1" d="M305.2,32.9c0-1.7,0-3-0.1-4.3h2.6l0.2,2.6h0.1c0.8-1.5,2.6-3,5.3-3c2.2,0,5.7,1.3,5.7,6.8v9.6h-2.9v-9.2
			c0-2.6-1-4.7-3.7-4.7c-1.9,0-3.4,1.4-3.9,3c-0.1,0.4-0.2,0.9-0.2,1.4v9.6h-2.9V32.9z"/>
		<path class="st1" d="M334.3,24v4.6h4.2v2.2h-4.2v8.6c0,2,0.6,3.1,2.2,3.1c0.8,0,1.3-0.1,1.7-0.2l0.1,2.2c-0.6,0.2-1.5,0.4-2.6,0.4
			c-1.4,0-2.5-0.4-3.1-1.2c-0.8-0.9-1.1-2.3-1.1-4.2v-8.7H329v-2.2h2.5v-3.8L334.3,24z"/>
		<path class="st1" d="M341.9,21.1h2.9v10h0.1c0.5-0.8,1.2-1.6,2.1-2c0.9-0.5,1.9-0.8,3-0.8c2.1,0,5.6,1.3,5.6,6.9v9.5h-2.9v-9.2
			c0-2.6-1-4.8-3.7-4.8c-1.9,0-3.4,1.3-3.9,2.9c-0.2,0.4-0.2,0.8-0.2,1.4v9.7h-2.9V21.1z"/>
		<path class="st1" d="M362,37.1c0.1,3.9,2.6,5.6,5.5,5.6c2.1,0,3.3-0.4,4.4-0.8l0.5,2.1c-1,0.5-2.8,1-5.3,1c-4.9,0-7.9-3.2-7.9-8.1
			s2.9-8.6,7.5-8.6c5.2,0,6.6,4.6,6.6,7.6c0,0.6-0.1,1.1-0.1,1.4L362,37.1L362,37.1z M370.5,35c0-1.9-0.8-4.7-4-4.7
			c-3,0-4.2,2.7-4.5,4.7H370.5z"/>
	</g>
	<g>
		<path class="st1" d="M141.4,86.4l-3.4,11.1h-7.4l12.5-39h9.1l12.7,39h-7.7l-3.5-11.1H141.4z M152.6,81l-3.1-9.6
			c-0.8-2.4-1.4-5-2-7.3h-0.1c-0.6,2.3-1.2,5-1.9,7.3l-3,9.6H152.6z"/>
		<path class="st1" d="M169.8,78.6c0-3.7-0.1-6.7-0.2-9.4h6.3l0.4,4.3h0.1c2.1-3.2,5.4-5,9.7-5c6.5,0,11.9,5.6,11.9,14.3
			c0,10.2-6.4,15.1-12.9,15.1c-3.5,0-6.5-1.5-7.9-3.8H177v14.6h-7.1L169.8,78.6L169.8,78.6z M177,85.6c0,0.7,0.1,1.3,0.2,2
			c0.8,2.9,3.2,5,6.3,5c4.5,0,7.2-3.8,7.2-9.3c0-5-2.4-9-7-9c-2.9,0-5.7,2.1-6.4,5.3c-0.1,0.6-0.2,1.2-0.2,1.8L177,85.6L177,85.6z"
			/>
		<path class="st1" d="M203.7,78.6c0-3.7-0.1-6.7-0.2-9.4h6.3l0.4,4.3h0.1c2.1-3.2,5.4-5,9.7-5c6.5,0,11.9,5.6,11.9,14.3
			c0,10.2-6.4,15.1-12.9,15.1c-3.5,0-6.5-1.5-7.9-3.8h-0.1v14.6h-7.1L203.7,78.6L203.7,78.6z M210.8,85.6c0,0.7,0.1,1.3,0.2,2
			c0.8,2.9,3.2,5,6.3,5c4.5,0,7.2-3.8,7.2-9.3c0-5-2.4-9-7-9c-2.9,0-5.7,2.1-6.4,5.3c-0.1,0.6-0.2,1.2-0.2,1.8L210.8,85.6
			L210.8,85.6z"/>
		<path class="st1" d="M249.7,89.7c2.3,1.3,5.8,2.5,9.4,2.5c4.5,0,7.1-2.1,7.1-5.3c0-2.9-2-4.7-6.9-6.5c-6.5-2.3-10.6-5.7-10.6-11.3
			c0-6.4,5.3-11.2,13.8-11.2c4.2,0,7.3,0.9,9.3,2l-1.7,5.7c-1.5-0.8-4.2-1.8-7.8-1.8c-4.5,0-6.4,2.4-6.4,4.7c0,3,2.3,4.4,7.5,6.4
			c6.8,2.6,10,6,10,11.6c0,6.3-4.8,11.8-14.8,11.8c-4.2,0-8.4-1.2-10.6-2.5L249.7,89.7z"/>
		<path class="st1" d="M287.5,62v7.2h6.8v5.3h-6.8V87c0,3.5,0.9,5.2,3.6,5.2c1.3,0,2-0.1,2.8-0.3l0.1,5.4c-1,0.4-3,0.8-5.1,0.8
			c-2.7,0-4.8-0.9-6.1-2.3c-1.6-1.6-2.3-4.2-2.3-7.9V74.6h-4v-5.3h4V64L287.5,62z"/>
		<path class="st1" d="M326.1,83.1c0,10.4-7.3,15-14.5,15c-7.9,0-14.1-5.4-14.1-14.5c0-9.3,6.1-14.9,14.6-14.9
			C320.5,68.6,326.1,74.5,326.1,83.1z M304.9,83.3c0,5.4,2.7,9.6,7,9.6c4,0,6.9-3.9,6.9-9.7c0-4.4-2-9.5-6.8-9.5
			C306.9,73.7,304.9,78.7,304.9,83.3z"/>
		<path class="st1" d="M331.9,78.3c0-3.8-0.1-6.6-0.2-9.1h6.1l0.3,5.3h0.2c1.4-3.9,4.7-6,7.8-6c0.7,0,1.1,0.1,1.7,0.2v6.7
			c-0.6-0.1-1.3-0.2-2.1-0.2c-3.4,0-5.7,2.1-6.4,5.4c-0.1,0.6-0.2,1.4-0.2,2.1v14.6h-7.1V78.3z"/>
		<path class="st1" d="M357.1,85.3c0.2,5.1,4.1,7.3,8.7,7.3c3.3,0,5.6-0.5,7.8-1.3l1,4.9c-2.4,1-5.8,1.8-9.8,1.8
			c-9.1,0-14.5-5.6-14.5-14.2c0-7.8,4.8-15.2,13.8-15.2c9.1,0,12.1,7.5,12.1,13.7c0,1.3-0.1,2.4-0.2,3L357.1,85.3L357.1,85.3z
			 M369.4,80.3c0.1-2.6-1.1-6.9-5.8-6.9c-4.4,0-6.3,4-6.5,6.9H369.4z"/>
	</g>
</g>
</svg>
