<?xml version="1.0" encoding="utf-8"?>
<!-- Generator: Adobe Illustrator 24.1.0, SVG Export Plug-In . SVG Version: 6.00 Build 0)  -->
<svg version="1.1" id="Layer_1" xmlns="http://www.w3.org/2000/svg" xmlns:xlink="http://www.w3.org/1999/xlink" x="0px" y="0px"
	 viewBox="0 0 414.4 124.2" style="enable-background:new 0 0 414.4 124.2;" xml:space="preserve">
<style type="text/css">
	.st0{stroke:#BEBEBE;stroke-width:3;stroke-miterlimit:10;}
	.st1{fill:#E93E4C;}
	.st2{fill:#5BC8F3;}
	.st3{fill:#74C168;}
	.st4{fill:#FED604;}
	.st5{fill:#FFFFFF;}
</style>
<g>
	<path class="st0" d="M399.5,121.6H14.9c-6.6,0-12-5.4-12-12v-95c0-6.6,5.4-12,12-12h384.7c6.6,0,12,5.4,12,12v95
		C411.5,116.2,406.1,121.6,399.5,121.6z"/>
	<path class="st1" d="M31.7,101.4c1.6,1.5,4,2,6.2,0.8l44.8-25.9l-13-13.1L31.7,101.4z"/>
	<path class="st2" d="M32.4,25.3c-1.3,0.9-2.2,2.4-2.2,4.2v68.3c0,1.5,0.6,2.7,1.5,3.6l38-38.2L32.4,25.3z"/>
	<path class="st3" d="M37.9,25c-1.9-1.1-4-0.8-5.5,0.3l37.4,37.9l12.5-12.5L37.9,25z"/>
	<path class="st4" d="M99.7,60.7L82.3,50.6L69.8,63.2l13,13.1l17-9.8C101.9,65.2,101.9,62,99.7,60.7z"/>
	<g>
		<path class="st5" d="M141.4,37.1c0,2.6-0.8,4.7-2.3,6.2c-1.7,1.8-4,2.8-6.8,2.8c-2.7,0-5-0.9-6.9-2.8s-2.8-4.2-2.8-6.9
			c0-2.7,0.9-5,2.8-6.9s4.2-2.8,6.9-2.8c1.4,0,2.7,0.2,3.9,0.7c1.2,0.5,2.2,1.2,3,2l-1.7,1.7c-0.6-0.7-1.3-1.2-2.2-1.6
			c-0.9-0.4-1.9-0.6-2.9-0.6c-2,0-3.7,0.7-5.2,2.1c-1.4,1.4-2.1,3.2-2.1,5.3s0.7,3.9,2.1,5.3c1.4,1.4,3.1,2.1,5.2,2.1
			c1.9,0,3.4-0.5,4.6-1.6s1.9-2.5,2.1-4.3h-6.8v-2.2h9C141.3,36.1,141.4,36.6,141.4,37.1z"/>
		<path class="st5" d="M155.1,27v2.3h-8.5v5.9h7.6v2.2h-7.6v5.9h8.5v2.3h-10.9V27H155.1z"/>
		<path class="st5" d="M164.7,29.3v16.3h-2.4V29.3h-5.2V27h12.8v2.3H164.7z"/>
		<path class="st5" d="M180.5,45.6h-2.4V27h2.4V45.6z"/>
		<path class="st5" d="M190.6,29.3v16.3h-2.4V29.3H183V27h12.8v2.3H190.6z"/>
		<path class="st5" d="M221.7,36.3c0,2.8-0.9,5.1-2.8,6.9c-1.9,1.9-4.1,2.8-6.8,2.8c-2.7,0-5-0.9-6.8-2.8c-1.8-1.8-2.8-4.2-2.8-6.9
			c0-2.8,0.9-5.1,2.8-6.9c1.8-1.9,4.1-2.8,6.8-2.8s5,1,6.8,2.8C220.8,31.3,221.7,33.6,221.7,36.3z M205,36.3c0,2.2,0.7,3.9,2,5.3
			c1.4,1.4,3.1,2.1,5.1,2.1s3.7-0.7,5.1-2.1c1.4-1.4,2.1-3.2,2.1-5.3s-0.7-3.9-2.1-5.3c-1.4-1.4-3-2.1-5.1-2.1c-2,0-3.7,0.7-5.1,2.1
			C205.7,32.4,205,34.2,205,36.3z"/>
		<path class="st5" d="M226.9,45.6h-2.4V27h2.9l9.1,14.5h0.1l-0.1-3.6V27h2.4v18.6h-2.5l-9.5-15.2h-0.1l0.1,3.6V45.6z"/>
		<path class="st5" d="M141.3,71.8h16.9c0.1,0.4,0.2,0.8,0.2,1.4c0.1,0.5,0.1,1.1,0.1,1.6c0,2.2-0.3,4.3-1,6.2s-1.7,3.7-3.2,5.2
			c-1.5,1.6-3.4,2.9-5.5,3.8c-2.1,0.9-4.6,1.3-7.3,1.3c-2.5,0-4.9-0.4-7.1-1.3s-4.1-2.1-5.8-3.7s-2.9-3.5-3.9-5.7s-1.4-4.6-1.4-7.2
			c0-2.6,0.5-5,1.4-7.2c1-2.2,2.3-4.1,3.9-5.7c1.6-1.6,3.6-2.8,5.8-3.7c2.2-0.9,4.6-1.3,7.1-1.3c2.8,0,5.3,0.5,7.5,1.4
			s4.1,2.3,5.6,4l-4.5,4.4c-1.1-1.2-2.4-2.1-3.7-2.7s-3-0.9-4.9-0.9c-1.6,0-3.1,0.3-4.5,0.8c-1.4,0.6-2.6,1.3-3.7,2.4
			c-1.1,1-1.9,2.3-2.5,3.7c-0.6,1.5-0.9,3.1-0.9,4.9s0.3,3.4,0.9,4.9c0.6,1.5,1.5,2.7,2.5,3.7c1.1,1,2.3,1.8,3.7,2.4
			s2.9,0.8,4.5,0.8c1.8,0,3.4-0.3,4.6-0.8c1.3-0.5,2.3-1.2,3.2-2c0.6-0.6,1.2-1.3,1.7-2.2c0.5-0.9,0.8-1.9,1.1-2.9h-10.8L141.3,71.8
			L141.3,71.8z"/>
		<path class="st5" d="M174,66.3c1.8,0,3.5,0.3,5,0.9c1.5,0.6,2.8,1.5,3.9,2.6c1.1,1.1,2,2.4,2.6,4s0.9,3.2,0.9,5s-0.3,3.5-0.9,5
			c-0.6,1.5-1.5,2.9-2.6,4c-1.1,1.1-2.4,2-3.9,2.6c-1.5,0.6-3.2,0.9-5,0.9c-1.8,0-3.5-0.3-5-0.9c-1.5-0.6-2.8-1.5-3.9-2.6
			c-1.1-1.1-2-2.4-2.6-4s-0.9-3.2-0.9-5s0.3-3.5,0.9-5c0.6-1.5,1.5-2.9,2.6-4c1.1-1.1,2.4-2,3.9-2.6C170.5,66.6,172.2,66.3,174,66.3
			z M174,85.6c0.8,0,1.6-0.2,2.3-0.5c0.8-0.3,1.4-0.7,2-1.3c0.6-0.6,1-1.3,1.4-2.1s0.5-1.8,0.5-2.8c0-1.1-0.2-2-0.5-2.8
			c-0.3-0.8-0.8-1.5-1.4-2.1c-0.6-0.6-1.2-1-2-1.3s-1.5-0.5-2.3-0.5c-0.8,0-1.6,0.2-2.4,0.5c-0.7,0.3-1.4,0.7-2,1.3s-1,1.3-1.4,2.1
			s-0.5,1.8-0.5,2.8c0,1.1,0.2,2,0.5,2.8c0.3,0.8,0.8,1.5,1.4,2.1c0.6,0.6,1.2,1,2,1.3C172.4,85.4,173.2,85.6,174,85.6z"/>
		<path class="st5" d="M201.7,66.3c1.8,0,3.5,0.3,5,0.9c1.5,0.6,2.8,1.5,3.9,2.6c1.1,1.1,2,2.4,2.6,4s0.9,3.2,0.9,5s-0.3,3.5-0.9,5
			c-0.6,1.5-1.5,2.9-2.6,4c-1.1,1.1-2.4,2-3.9,2.6c-1.5,0.6-3.2,0.9-5,0.9c-1.8,0-3.5-0.3-5-0.9c-1.5-0.6-2.8-1.5-3.9-2.6
			c-1.1-1.1-2-2.4-2.6-4s-0.9-3.2-0.9-5s0.3-3.5,0.9-5c0.6-1.5,1.5-2.9,2.6-4c1.1-1.1,2.4-2,3.9-2.6
			C198.2,66.6,199.9,66.3,201.7,66.3z M201.7,85.6c0.8,0,1.6-0.2,2.3-0.5c0.8-0.3,1.4-0.7,2-1.3c0.6-0.6,1-1.3,1.4-2.1
			s0.5-1.8,0.5-2.8c0-1.1-0.2-2-0.5-2.8c-0.3-0.8-0.8-1.5-1.4-2.1c-0.6-0.6-1.2-1-2-1.3s-1.5-0.5-2.3-0.5c-0.8,0-1.6,0.2-2.4,0.5
			c-0.7,0.3-1.4,0.7-2,1.3s-1,1.3-1.4,2.1s-0.5,1.8-0.5,2.8c0,1.1,0.2,2,0.5,2.8c0.3,0.8,0.8,1.5,1.4,2.1c0.6,0.6,1.2,1,2,1.3
			C200.1,85.4,200.9,85.6,201.7,85.6z"/>
		<path class="st5" d="M229,101.8c-1.7,0-3.1-0.2-4.4-0.7s-2.4-1-3.4-1.7s-1.8-1.4-2.4-2.3s-1.1-1.7-1.4-2.5l6-2.4
			c0.4,1.3,1.2,2.2,2.2,2.9c1,0.7,2.2,1,3.4,1c2,0,3.6-0.6,4.7-1.9s1.7-3.1,1.7-5.3v-1.6h-0.4c-0.7,1-1.7,1.8-2.9,2.4
			s-2.6,0.9-4.3,0.9c-1.4,0-2.8-0.3-4.1-0.8c-1.3-0.6-2.5-1.4-3.5-2.4c-1-1.1-1.9-2.3-2.5-3.8c-0.6-1.5-1-3.2-1-5s0.3-3.5,1-5
			c0.6-1.5,1.5-2.8,2.5-3.8c1-1.1,2.2-1.9,3.5-2.4s2.7-0.9,4.1-0.9c1.6,0,3.1,0.3,4.3,0.9s2.2,1.4,2.9,2.4h0.4v-2.5h6v21.8
			c0,2-0.3,3.8-0.9,5.3s-1.5,2.9-2.5,4s-2.4,1.9-3.9,2.5C232.6,101.5,230.9,101.8,229,101.8z M229.3,85c0.8,0,1.5-0.1,2.3-0.4
			s1.4-0.7,2-1.3s1-1.2,1.4-2c0.4-0.8,0.5-1.7,0.5-2.8s-0.2-2-0.5-2.8s-0.8-1.5-1.4-2.1s-1.2-1-2-1.3s-1.5-0.4-2.3-0.4
			s-1.5,0.1-2.3,0.4s-1.4,0.7-2,1.3c-0.6,0.6-1,1.3-1.4,2.1s-0.5,1.7-0.5,2.8s0.2,2,0.5,2.8s0.8,1.5,1.4,2s1.2,1,2,1.3
			S228.5,85,229.3,85z"/>
		<path class="st5" d="M246.8,90.6V56.3h6.3v34.4H246.8z"/>
		<path class="st5" d="M280.5,85c-1.1,1.9-2.5,3.5-4.4,4.7c-1.8,1.2-4.1,1.8-6.7,1.8c-1.8,0-3.5-0.3-5-0.9s-2.8-1.5-4-2.6
			s-2-2.4-2.6-4c-0.6-1.5-0.9-3.2-0.9-5c0-1.7,0.3-3.3,0.9-4.8c0.6-1.5,1.5-2.8,2.5-4c1.1-1.1,2.4-2,3.9-2.7c1.5-0.7,3.1-1,4.9-1
			c1.9,0,3.6,0.3,5,0.9c1.5,0.6,2.7,1.5,3.7,2.6s1.7,2.4,2.3,3.9c0.5,1.5,0.8,3.1,0.8,4.9c0,0.2,0,0.4,0,0.6c0,0.2,0,0.4,0,0.5
			c0,0.2,0,0.3,0,0.5h-17.7c0.1,1,0.4,1.8,0.8,2.5s0.9,1.3,1.5,1.7c0.6,0.5,1.2,0.8,1.9,1s1.4,0.3,2.2,0.3c1.4,0,2.6-0.3,3.6-1
			c0.9-0.7,1.7-1.5,2.2-2.5L280.5,85z M274.8,75.8c0-0.4-0.2-0.9-0.4-1.4s-0.6-1-1.1-1.4c-0.5-0.4-1-0.8-1.7-1.1
			c-0.7-0.3-1.5-0.4-2.5-0.4c-1.3,0-2.5,0.4-3.5,1.2c-1,0.8-1.8,1.8-2.2,3.2L274.8,75.8L274.8,75.8z"/>
		<path class="st5" d="M296.3,90.6V56.3h12.1c1.6,0,3.2,0.3,4.6,0.8c1.4,0.5,2.7,1.3,3.7,2.2s1.9,2.1,2.5,3.4
			c0.6,1.3,0.9,2.8,0.9,4.4c0,1.6-0.3,3.1-0.9,4.4c-0.6,1.3-1.4,2.5-2.5,3.4s-2.3,1.7-3.7,2.2c-1.4,0.5-3,0.8-4.6,0.8h-5.6v12.6
			L296.3,90.6L296.3,90.6z M308.5,71.9c1.7,0,3-0.5,3.8-1.4s1.3-2.1,1.3-3.3c0-0.6-0.1-1.2-0.3-1.8s-0.5-1.1-1-1.5
			c-0.4-0.4-1-0.8-1.6-1c-0.6-0.3-1.4-0.4-2.3-0.4h-5.7v9.5L308.5,71.9L308.5,71.9z"/>
		<path class="st5" d="M324.2,90.6V56.3h6.3v34.4H324.2z"/>
		<path class="st5" d="M350.1,88.1h-0.4c-0.7,0.9-1.6,1.7-2.7,2.3s-2.4,1-4,1c-1.2,0-2.4-0.2-3.4-0.6s-2-0.9-2.8-1.7
			c-0.8-0.7-1.4-1.6-1.9-2.5c-0.5-1-0.7-2.1-0.7-3.3c0-1.2,0.2-2.3,0.7-3.3s1.1-1.8,2-2.5c0.9-0.7,1.9-1.2,3-1.6
			c1.2-0.4,2.4-0.6,3.8-0.6c1.5,0,2.8,0.1,3.8,0.4c1,0.2,1.8,0.5,2.5,0.7v-0.7c0-1.3-0.5-2.3-1.5-3.1s-2.2-1.2-3.7-1.2
			c-2.2,0-4,0.9-5.5,2.7l-4.6-3.1c2.5-3.1,5.9-4.7,10.2-4.7c3.6,0,6.4,0.9,8.4,2.6c1.9,1.7,2.9,4.3,2.9,7.6v14.1h-6.2L350.1,88.1
			L350.1,88.1z M350.1,81.1c-0.7-0.3-1.5-0.6-2.3-0.8c-0.8-0.2-1.6-0.3-2.6-0.3c-1.5,0-2.7,0.3-3.5,1c-0.8,0.7-1.2,1.5-1.2,2.4
			s0.4,1.7,1.2,2.3c0.8,0.6,1.7,0.9,2.7,0.9c0.8,0,1.6-0.2,2.3-0.5c0.7-0.3,1.3-0.7,1.8-1.2s0.9-1.1,1.1-1.7
			C350,82.5,350.1,81.8,350.1,81.1z"/>
		<path class="st5" d="M368.2,89.5l-9.9-22.4h7.1l6,14.3h0.3l5.7-14.3h7L369.7,101H363L368.2,89.5z"/>
	</g>
</g>
</svg>
